#define 0_width 12
#define 0_height 16
static unsigned char 0_bits[] = {
   0x00, 0x00, 0xf8, 0x01, 0xf8, 0x01, 0x06, 0x06, 0x06, 0x06, 0x86, 0x07,
   0x86, 0x07, 0x66, 0x06, 0x66, 0x06, 0x1e, 0x06, 0x1e, 0x06, 0x06, 0x06,
   0x06, 0x06, 0xf8, 0x01, 0xf8, 0x01, 0x00, 0x00 };
