#define 2_width 12
#define 2_height 16
static unsigned char 2_bits[] = {
   0x00, 0x00, 0xf8, 0x01, 0xf8, 0x01, 0x06, 0x06, 0x06, 0x06, 0x00, 0x06,
   0x00, 0x06, 0x80, 0x01, 0x80, 0x01, 0x60, 0x00, 0x60, 0x00, 0x18, 0x00,
   0x18, 0x00, 0xfe, 0x07, 0xfe, 0x07, 0x00, 0x00 };
