#define 3_width 12
#define 3_height 16
static unsigned char 3_bits[] = {
   0x00, 0x00, 0xfe, 0x07, 0xfe, 0x07, 0x80, 0x01, 0x80, 0x01, 0x60, 0x00,
   0x60, 0x00, 0x80, 0x01, 0x80, 0x01, 0x00, 0x06, 0x00, 0x06, 0x06, 0x06,
   0x06, 0x06, 0xf8, 0x01, 0xf8, 0x01, 0x00, 0x00 };
