#define 4_width 12
#define 4_height 16
static unsigned char 4_bits[] = {
   0x00, 0x00, 0x80, 0x01, 0x80, 0x01, 0xe0, 0x01, 0xe0, 0x01, 0x98, 0x01,
   0x98, 0x01, 0x86, 0x01, 0x86, 0x01, 0xfe, 0x07, 0xfe, 0x07, 0x80, 0x01,
   0x80, 0x01, 0x80, 0x01, 0x80, 0x01, 0x00, 0x00 };
