#define 5_width 12
#define 5_height 16
static unsigned char 5_bits[] = {
   0x00, 0x00, 0xfe, 0x07, 0xfe, 0x07, 0x06, 0x00, 0x06, 0x00, 0xfe, 0x01,
   0xfe, 0x01, 0x00, 0x06, 0x00, 0x06, 0x00, 0x06, 0x00, 0x06, 0x06, 0x06,
   0x06, 0x06, 0xf8, 0x01, 0xf8, 0x01, 0x00, 0x00 };
