#define 6_width 12
#define 6_height 16
static unsigned char 6_bits[] = {
   0x00, 0x00, 0xe0, 0x01, 0xe0, 0x01, 0x18, 0x00, 0x18, 0x00, 0x06, 0x00,
   0x06, 0x00, 0xfe, 0x01, 0xfe, 0x01, 0x06, 0x06, 0x06, 0x06, 0x06, 0x06,
   0x06, 0x06, 0xf8, 0x01, 0xf8, 0x01, 0x00, 0x00 };
