#define 8_width 12
#define 8_height 16
static unsigned char 8_bits[] = {
   0x00, 0x00, 0xf8, 0x01, 0xf8, 0x01, 0x06, 0x06, 0x06, 0x06, 0x06, 0x06,
   0x06, 0x06, 0xf8, 0x01, 0xf8, 0x01, 0x06, 0x06, 0x06, 0x06, 0x06, 0x06,
   0x06, 0x06, 0xf8, 0x01, 0xf8, 0x01, 0x00, 0x00 };
