#define 9_width 12
#define 9_height 16
static unsigned char 9_bits[] = {
   0x00, 0x00, 0xf8, 0x01, 0xf8, 0x01, 0x06, 0x06, 0x06, 0x06, 0x06, 0x06,
   0x06, 0x06, 0xf8, 0x07, 0xf8, 0x07, 0x00, 0x06, 0x00, 0x06, 0x80, 0x01,
   0x80, 0x01, 0x78, 0x00, 0x78, 0x00, 0x00, 0x00 };
