#define _b_width 12
#define _b_height 16
static unsigned char _b_bits[] = {
   0x00, 0x00, 0x06, 0x00, 0x06, 0x00, 0x06, 0x00, 0x06, 0x00, 0xe6, 0x01,
   0xe6, 0x01, 0x1e, 0x06, 0x1e, 0x06, 0x06, 0x06, 0x06, 0x06, 0x06, 0x06,
   0x06, 0x06, 0xfe, 0x01, 0xfe, 0x01, 0x00, 0x00 };
