#define _c_width 12
#define _c_height 16
static unsigned char _c_bits[] = {
   0x00, 0x00, 0x00, 0x00, 0x00, 0x00, 0x00, 0x00, 0x00, 0x00, 0xf8, 0x01,
   0xf8, 0x01, 0x06, 0x06, 0x06, 0x06, 0x06, 0x00, 0x06, 0x00, 0x06, 0x06,
   0x06, 0x06, 0xf8, 0x01, 0xf8, 0x01, 0x00, 0x00 };
