#define _d_width 12
#define _d_height 16
static unsigned char _d_bits[] = {
   0x00, 0x00, 0x00, 0x06, 0x00, 0x06, 0x00, 0x06, 0x00, 0x06, 0x78, 0x06,
   0x78, 0x06, 0x86, 0x07, 0x86, 0x07, 0x06, 0x06, 0x06, 0x06, 0x06, 0x06,
   0x06, 0x06, 0xf8, 0x07, 0xf8, 0x07, 0x00, 0x00 };
