#define _e_width 12
#define _e_height 16
static unsigned char _e_bits[] = {
   0x00, 0x00, 0x00, 0x00, 0x00, 0x00, 0x00, 0x00, 0x00, 0x00, 0xf8, 0x01,
   0xf8, 0x01, 0x06, 0x06, 0x06, 0x06, 0xfe, 0x07, 0xfe, 0x07, 0x06, 0x00,
   0x06, 0x00, 0xf8, 0x07, 0xf8, 0x07, 0x00, 0x00 };
