#define _f_width 12
#define _f_height 16
static unsigned char _f_bits[] = {
   0x00, 0x00, 0xe0, 0x01, 0xe0, 0x01, 0x18, 0x06, 0x18, 0x06, 0x18, 0x00,
   0x18, 0x00, 0xfe, 0x01, 0xfe, 0x01, 0x18, 0x00, 0x18, 0x00, 0x18, 0x00,
   0x18, 0x00, 0x18, 0x00, 0x18, 0x00, 0x00, 0x00 };
