#define _g_width 12
#define _g_height 16
static unsigned char _g_bits[] = {
   0x00, 0x00, 0x00, 0x00, 0x00, 0x00, 0x00, 0x00, 0x00, 0x00, 0xf8, 0x06,
   0xf8, 0x06, 0x06, 0x07, 0x06, 0x07, 0x06, 0x06, 0xf8, 0x07, 0xf8, 0x07,
   0x00, 0x06, 0xf8, 0x07, 0xf8, 0x07, 0x00, 0x00 };
