#define _i_width 12
#define _i_height 16
static unsigned char _i_bits[] = {
   0x00, 0x00, 0x60, 0x00, 0x60, 0x00, 0x00, 0x00, 0x00, 0x00, 0x78, 0x00,
   0x78, 0x00, 0x60, 0x00, 0x60, 0x00, 0x60, 0x00, 0x60, 0x00, 0x60, 0x00,
   0x60, 0x00, 0xf8, 0x01, 0xf8, 0x01, 0x00, 0x00 };
