#define _j_width 12
#define _j_height 16
static unsigned char _j_bits[] = {
   0x00, 0x00, 0x00, 0x03, 0x00, 0x03, 0x00, 0x00, 0x00, 0x00, 0x00, 0x03,
   0x00, 0x03, 0x00, 0x03, 0x00, 0x03, 0x00, 0x03, 0x00, 0x03, 0x0c, 0x03,
   0x0c, 0x03, 0xf0, 0x00, 0xf0, 0x00, 0x00, 0x00 };
