#define _k_width 12
#define _k_height 16
static unsigned char _k_bits[] = {
   0x00, 0x00, 0x06, 0x00, 0x06, 0x00, 0x06, 0x00, 0x06, 0x00, 0x06, 0x03,
   0x06, 0x03, 0xc6, 0x00, 0xc6, 0x00, 0x3e, 0x00, 0x3e, 0x00, 0xc6, 0x00,
   0xc6, 0x00, 0x06, 0x03, 0x06, 0x03, 0x00, 0x00 };
