#define _m_width 12
#define _m_height 16
static unsigned char _m_bits[] = {
   0x00, 0x00, 0x00, 0x00, 0x00, 0x00, 0x00, 0x00, 0x00, 0x00, 0x9e, 0x01,
   0x9e, 0x01, 0x66, 0x06, 0x66, 0x06, 0x66, 0x06, 0x06, 0x06, 0x06, 0x06,
   0x06, 0x06, 0x06, 0x06, 0x06, 0x06, 0x00, 0x00 };
