#define _o_width 12
#define _o_height 16
static unsigned char _o_bits[] = {
   0x00, 0x00, 0x00, 0x00, 0x00, 0x00, 0x00, 0x00, 0x00, 0x00, 0xf8, 0x01,
   0xf8, 0x01, 0x06, 0x06, 0x06, 0x06, 0x06, 0x06, 0x06, 0x06, 0x06, 0x06,
   0x06, 0x06, 0xf8, 0x01, 0xf8, 0x01, 0x00, 0x00 };
