#define _p_width 12
#define _p_height 16
static unsigned char _p_bits[] = {
   0x00, 0x00, 0x00, 0x00, 0x00, 0x00, 0x00, 0x00, 0x00, 0x00, 0xf6, 0x01,
   0xf6, 0x01, 0x0e, 0x06, 0x0e, 0x06, 0x06, 0x06, 0xfe, 0x01, 0xfe, 0x01,
   0x06, 0x00, 0x06, 0x00, 0x06, 0x00, 0x00, 0x00 };
