#define _s_width 12
#define _s_height 16
static unsigned char _s_bits[] = {
   0x00, 0x00, 0x00, 0x00, 0x00, 0x00, 0x00, 0x00, 0x00, 0x00, 0xf8, 0x03,
   0xf8, 0x03, 0x06, 0x00, 0x06, 0x00, 0xf8, 0x01, 0xf8, 0x01, 0x00, 0x06,
   0x00, 0x06, 0xfc, 0x01, 0xfc, 0x01, 0x00, 0x00 };
