#define _t_width 12
#define _t_height 16
static unsigned char _t_bits[] = {
   0x00, 0x00, 0x00, 0x00, 0x00, 0x00, 0x18, 0x00, 0x18, 0x00, 0x7e, 0x00,
   0x7e, 0x00, 0x18, 0x00, 0x18, 0x00, 0x18, 0x00, 0x18, 0x00, 0x18, 0x06,
   0x18, 0x06, 0xe0, 0x01, 0xe0, 0x01, 0x00, 0x00 };
