#define _u_width 12
#define _u_height 16
static unsigned char _u_bits[] = {
   0x00, 0x00, 0x00, 0x00, 0x00, 0x00, 0x00, 0x00, 0x00, 0x00, 0x06, 0x06,
   0x06, 0x06, 0x06, 0x06, 0x06, 0x06, 0x06, 0x06, 0x06, 0x06, 0x86, 0x07,
   0x86, 0x07, 0x78, 0x06, 0x78, 0x06, 0x00, 0x00 };
