#define _w_width 12
#define _w_height 16
static unsigned char _w_bits[] = {
   0x00, 0x00, 0x00, 0x00, 0x00, 0x00, 0x00, 0x00, 0x00, 0x00, 0x06, 0x06,
   0x06, 0x06, 0x06, 0x06, 0x06, 0x06, 0x06, 0x06, 0x66, 0x06, 0x66, 0x06,
   0x66, 0x06, 0x98, 0x01, 0x98, 0x01, 0x00, 0x00 };
