#define _x_width 12
#define _x_height 16
static unsigned char _x_bits[] = {
   0x00, 0x00, 0x00, 0x00, 0x00, 0x00, 0x00, 0x00, 0x00, 0x00, 0x06, 0x06,
   0x06, 0x06, 0x98, 0x01, 0x98, 0x01, 0x60, 0x00, 0x60, 0x00, 0x98, 0x01,
   0x98, 0x01, 0x06, 0x06, 0x06, 0x06, 0x00, 0x00 };
