#define _y_width 12
#define _y_height 16
static unsigned char _y_bits[] = {
   0x00, 0x00, 0x00, 0x00, 0x00, 0x00, 0x00, 0x00, 0x00, 0x00, 0x06, 0x06,
   0x06, 0x06, 0x06, 0x06, 0x06, 0x06, 0xf8, 0x07, 0xf8, 0x07, 0x00, 0x06,
   0x00, 0x06, 0xf8, 0x01, 0xf8, 0x01, 0x00, 0x00 };
