#define _z_width 12
#define _z_height 16
static unsigned char _z_bits[] = {
   0x00, 0x00, 0x00, 0x00, 0x00, 0x00, 0x00, 0x00, 0x00, 0x00, 0xfe, 0x07,
   0xfe, 0x07, 0x80, 0x01, 0x80, 0x01, 0x60, 0x00, 0x60, 0x00, 0x18, 0x00,
   0x18, 0x00, 0xfe, 0x07, 0xfe, 0x07, 0x00, 0x00 };
