#define ampersand_width 12
#define ampersand_height 16
static unsigned char ampersand_bits[] = {
   0x00, 0x00, 0x78, 0x00, 0x78, 0x00, 0x86, 0x01, 0x86, 0x01, 0x66, 0x00,
   0x66, 0x00, 0x18, 0x00, 0x18, 0x00, 0x66, 0x06, 0x66, 0x06, 0x86, 0x01,
   0x86, 0x01, 0x78, 0x06, 0x78, 0x06, 0x00, 0x00 };
