#define asterisk_width 12
#define asterisk_height 16
static unsigned char asterisk_bits[] = {
   0x00, 0x00, 0x98, 0x01, 0x98, 0x01, 0x60, 0x00, 0x60, 0x00, 0x98, 0x01,
   0x98, 0x01, 0x00, 0x00, 0x00, 0x00, 0x00, 0x00, 0x00, 0x00, 0x00, 0x00,
   0x00, 0x00, 0x00, 0x00, 0x00, 0x00, 0x00, 0x00 };
