#define at_width 12
#define at_height 16
static unsigned char at_bits[] = {
   0x00, 0x00, 0xf8, 0x01, 0xf8, 0x01, 0x06, 0x06, 0x06, 0x06, 0x76, 0x07,
   0xf6, 0x07, 0x36, 0x06, 0x36, 0x06, 0xf6, 0x06, 0xf6, 0x07, 0x06, 0x07,
   0x06, 0x00, 0xfc, 0x01, 0xfc, 0x01, 0x00, 0x00 };
