#define comma_width 12
#define comma_height 16
static unsigned char comma_bits[] = {
   0x00, 0x00, 0x00, 0x00, 0x00, 0x00, 0x00, 0x00, 0x00, 0x00, 0x00, 0x00,
   0x00, 0x00, 0x00, 0x00, 0x00, 0x00, 0x00, 0x00, 0xc0, 0x00, 0xc0, 0x00,
   0xc0, 0x00, 0x30, 0x00, 0x30, 0x00, 0x00, 0x00 };
