#define curly_braceL_width 12
#define curly_braceL_height 16
static unsigned char curly_braceL_bits[] = {
   0x00, 0x00, 0x80, 0x01, 0x80, 0x01, 0x60, 0x00, 0x60, 0x00, 0x60, 0x00,
   0x60, 0x00, 0x18, 0x00, 0x18, 0x00, 0x60, 0x00, 0x60, 0x00, 0x60, 0x00,
   0x60, 0x00, 0x80, 0x01, 0x80, 0x01, 0x00, 0x00 };
