#define curly_braceR_width 12
#define curly_braceR_height 16
static unsigned char curly_braceR_bits[] = {
   0x00, 0x00, 0x18, 0x00, 0x18, 0x00, 0x60, 0x00, 0x60, 0x00, 0x60, 0x00,
   0x60, 0x00, 0x80, 0x01, 0x80, 0x01, 0x60, 0x00, 0x60, 0x00, 0x60, 0x00,
   0x60, 0x00, 0x18, 0x00, 0x18, 0x00, 0x00, 0x00 };
