#define D_width 12
#define D_height 16
static unsigned char D_bits[] = {
   0x00, 0x00, 0xfe, 0x01, 0xfe, 0x01, 0x06, 0x06, 0x06, 0x06, 0x06, 0x06,
   0x06, 0x06, 0x06, 0x06, 0x06, 0x06, 0x06, 0x06, 0x06, 0x06, 0x06, 0x06,
   0x06, 0x06, 0xfe, 0x01, 0xfe, 0x01, 0x00, 0x00 };
