#define dollar_width 12
#define dollar_height 16
static unsigned char dollar_bits[] = {
   0x00, 0x00, 0x60, 0x00, 0x60, 0x00, 0xf8, 0x03, 0xf8, 0x03, 0x66, 0x00,
   0x66, 0x00, 0xf8, 0x01, 0xf8, 0x01, 0x60, 0x06, 0x60, 0x06, 0xfc, 0x01,
   0xfc, 0x01, 0x60, 0x00, 0x60, 0x00, 0x00, 0x00 };
