#define E_width 12
#define E_height 16
static unsigned char E_bits[] = {
   0x00, 0x00, 0xfe, 0x07, 0xfe, 0x07, 0x06, 0x00, 0x06, 0x00, 0x06, 0x00,
   0x06, 0x00, 0xfe, 0x01, 0xfe, 0x01, 0x06, 0x00, 0x06, 0x00, 0x06, 0x00,
   0x06, 0x00, 0xfe, 0x07, 0xfe, 0x07, 0x00, 0x00 };
