#define equals_width 12
#define equals_height 16
static unsigned char equals_bits[] = {
   0x00, 0x00, 0x00, 0x00, 0x00, 0x00, 0x00, 0x00, 0x00, 0x00, 0xfc, 0x03,
   0xfc, 0x03, 0x00, 0x00, 0x00, 0x00, 0xfc, 0x03, 0xfc, 0x03, 0x00, 0x00,
   0x00, 0x00, 0x00, 0x00, 0x00, 0x00, 0x00, 0x00 };
