#define exclamation_mark_width 12
#define exclamation_mark_height 16
static unsigned char exclamation_mark_bits[] = {
   0x00, 0x00, 0x60, 0x00, 0x60, 0x00, 0x60, 0x00, 0x60, 0x00, 0x60, 0x00,
   0x60, 0x00, 0x60, 0x00, 0x60, 0x00, 0x60, 0x00, 0x60, 0x00, 0x00, 0x00,
   0x00, 0x00, 0x60, 0x00, 0x60, 0x00, 0x00, 0x00 };
