#define forwardslash_width 12
#define forwardslash_height 16
static unsigned char forwardslash_bits[] = {
   0x00, 0x00, 0x00, 0x03, 0x00, 0x03, 0x00, 0x03, 0xc0, 0x00, 0xc0, 0x00,
   0xc0, 0x00, 0xc0, 0x00, 0x30, 0x00, 0x30, 0x00, 0x30, 0x00, 0x30, 0x00,
   0x0c, 0x00, 0x0c, 0x00, 0x0c, 0x00, 0x00, 0x00 };
