#define G_width 12
#define G_height 16
static unsigned char G_bits[] = {
   0x00, 0x00, 0xf8, 0x01, 0xf8, 0x01, 0x06, 0x06, 0x06, 0x06, 0x06, 0x00,
   0x06, 0x00, 0xe6, 0x07, 0xe6, 0x07, 0x06, 0x06, 0x06, 0x06, 0x06, 0x06,
   0x06, 0x06, 0xf8, 0x01, 0xf8, 0x01, 0x00, 0x00 };
