#define grave_accent_width 12
#define grave_accent_height 16
static unsigned char grave_accent_bits[] = {
   0x00, 0x00, 0x30, 0x00, 0x30, 0x00, 0xc0, 0x00, 0xc0, 0x00, 0x00, 0x00,
   0x00, 0x00, 0x00, 0x00, 0x00, 0x00, 0x00, 0x00, 0x00, 0x00, 0x00, 0x00,
   0x00, 0x00, 0x00, 0x00, 0x00, 0x00, 0x00, 0x00 };
