#define J_width 12
#define J_height 16
static unsigned char J_bits[] = {
   0x00, 0x00, 0xf8, 0x07, 0xf8, 0x07, 0xc0, 0x00, 0xc0, 0x00, 0xc0, 0x00,
   0xc0, 0x00, 0xc0, 0x00, 0xc0, 0x00, 0xc0, 0x00, 0xc0, 0x00, 0xc6, 0x00,
   0xc6, 0x00, 0x38, 0x00, 0x38, 0x00, 0x00, 0x00 };
