#define K_width 12
#define K_height 16
static unsigned char K_bits[] = {
   0x00, 0x00, 0x06, 0x06, 0x06, 0x06, 0x86, 0x01, 0x86, 0x01, 0x66, 0x00,
   0x66, 0x00, 0x1e, 0x00, 0x1e, 0x00, 0x66, 0x00, 0x66, 0x00, 0x86, 0x01,
   0x86, 0x01, 0x06, 0x06, 0x06, 0x06, 0x00, 0x00 };
