#define L_width 12
#define L_height 16
static unsigned char L_bits[] = {
   0x00, 0x00, 0x06, 0x00, 0x06, 0x00, 0x06, 0x00, 0x06, 0x00, 0x06, 0x00,
   0x06, 0x00, 0x06, 0x00, 0x06, 0x00, 0x06, 0x00, 0x06, 0x00, 0x06, 0x00,
   0x06, 0x00, 0xfe, 0x07, 0xfe, 0x07, 0x00, 0x00 };
