#define less_then_width 12
#define less_then_height 16
static unsigned char less_then_bits[] = {
   0x00, 0x00, 0x00, 0x00, 0x00, 0x00, 0x80, 0x01, 0x80, 0x01, 0x60, 0x00,
   0x60, 0x00, 0x18, 0x00, 0x18, 0x00, 0x60, 0x00, 0x60, 0x00, 0x80, 0x01,
   0x80, 0x01, 0x00, 0x00, 0x00, 0x00, 0x00, 0x00 };
