#define M_width 12
#define M_height 16
static unsigned char M_bits[] = {
   0x00, 0x00, 0x06, 0x06, 0x06, 0x06, 0x9e, 0x07, 0x9e, 0x07, 0x66, 0x06,
   0x66, 0x06, 0x06, 0x06, 0x06, 0x06, 0x06, 0x06, 0x06, 0x06, 0x06, 0x06,
   0x06, 0x06, 0x06, 0x06, 0x06, 0x06, 0x00, 0x00 };
