#define N_width 12
#define N_height 16
static unsigned char N_bits[] = {
   0x00, 0x00, 0x06, 0x06, 0x06, 0x06, 0x06, 0x06, 0x06, 0x06, 0x1e, 0x06,
   0x1e, 0x06, 0x66, 0x06, 0x66, 0x06, 0x86, 0x07, 0x86, 0x07, 0x06, 0x06,
   0x06, 0x06, 0x06, 0x06, 0x06, 0x06, 0x00, 0x00 };
