#define pound_width 12
#define pound_height 16
static unsigned char pound_bits[] = {
   0x00, 0x00, 0x98, 0x01, 0x98, 0x01, 0x98, 0x01, 0x98, 0x01, 0xfe, 0x07,
   0xfe, 0x07, 0x98, 0x01, 0x98, 0x01, 0xfe, 0x07, 0xfe, 0x07, 0x98, 0x01,
   0x98, 0x01, 0x98, 0x01, 0x98, 0x01, 0x00, 0x00 };
