#define P_width 12
#define P_height 16
static unsigned char P_bits[] = {
   0x00, 0x00, 0xfe, 0x01, 0xfe, 0x01, 0x06, 0x06, 0x06, 0x06, 0x06, 0x06,
   0x06, 0x06, 0xfe, 0x01, 0xfe, 0x01, 0x06, 0x00, 0x06, 0x00, 0x06, 0x00,
   0x06, 0x00, 0x06, 0x00, 0x06, 0x00, 0x00, 0x00 };
