#define parenthesisR_width 12
#define parenthesisR_height 16
static unsigned char parenthesisR_bits[] = {
   0x00, 0x00, 0x18, 0x00, 0x18, 0x00, 0x60, 0x00, 0x60, 0x00, 0x80, 0x01,
   0x80, 0x01, 0x80, 0x01, 0x80, 0x01, 0x80, 0x01, 0x80, 0x01, 0x60, 0x00,
   0x60, 0x00, 0x18, 0x00, 0x18, 0x00, 0x00, 0x00 };
