#define percent_width 12
#define percent_height 16
static unsigned char percent_bits[] = {
   0x00, 0x00, 0x00, 0x00, 0x1c, 0x06, 0x1c, 0x06, 0x9c, 0x01, 0x80, 0x01,
   0x80, 0x01, 0x60, 0x00, 0x60, 0x00, 0x18, 0x00, 0x18, 0x00, 0x98, 0x03,
   0x86, 0x03, 0x86, 0x03, 0x00, 0x00, 0x00, 0x00 };
