#define plus_width 12
#define plus_height 16
static unsigned char plus_bits[] = {
   0x00, 0x00, 0x00, 0x00, 0x00, 0x00, 0x00, 0x00, 0x60, 0x00, 0x60, 0x00,
   0x60, 0x00, 0xfc, 0x03, 0xfc, 0x03, 0x60, 0x00, 0x60, 0x00, 0x60, 0x00,
   0x00, 0x00, 0x00, 0x00, 0x00, 0x00, 0x00, 0x00 };
