#define Q_width 12
#define Q_height 16
static unsigned char Q_bits[] = {
   0x00, 0x00, 0xf8, 0x01, 0xf8, 0x01, 0x06, 0x06, 0x06, 0x06, 0x06, 0x06,
   0x06, 0x06, 0x06, 0x06, 0x06, 0x06, 0x66, 0x06, 0x66, 0x06, 0x86, 0x01,
   0x86, 0x01, 0x78, 0x06, 0x78, 0x06, 0x00, 0x00 };
