#define question_mark_width 12
#define question_mark_height 16
static unsigned char question_mark_bits[] = {
   0x00, 0x00, 0xf8, 0x01, 0xf8, 0x01, 0x06, 0x06, 0x06, 0x06, 0x00, 0x06,
   0x00, 0x06, 0x80, 0x01, 0x80, 0x01, 0x60, 0x00, 0x60, 0x00, 0x00, 0x00,
   0x00, 0x00, 0x60, 0x00, 0x60, 0x00, 0x00, 0x00 };
