#define quotation_mark_width 12
#define quotation_mark_height 16
static unsigned char quotation_mark_bits[] = {
   0x00, 0x00, 0x98, 0x01, 0x98, 0x01, 0x98, 0x01, 0x98, 0x01, 0x98, 0x01,
   0x98, 0x01, 0x00, 0x00, 0x00, 0x00, 0x00, 0x00, 0x00, 0x00, 0x00, 0x00,
   0x00, 0x00, 0x00, 0x00, 0x00, 0x00, 0x00, 0x00 };
