#define S_width 12
#define S_height 16
static unsigned char S_bits[] = {
   0x00, 0x00, 0xf8, 0x07, 0xf8, 0x07, 0x06, 0x00, 0x06, 0x00, 0x06, 0x00,
   0x06, 0x00, 0xf8, 0x01, 0xf8, 0x01, 0x00, 0x06, 0x00, 0x06, 0x00, 0x06,
   0x00, 0x06, 0xfe, 0x01, 0xfe, 0x01, 0x00, 0x00 };
