#define semicolon_width 12
#define semicolon_height 16
static unsigned char semicolon_bits[] = {
   0x00, 0x00, 0x00, 0x00, 0x00, 0x00, 0x00, 0x00, 0x00, 0x00, 0x60, 0x00,
   0x60, 0x00, 0x00, 0x00, 0x00, 0x00, 0x60, 0x00, 0x60, 0x00, 0x60, 0x00,
   0x18, 0x00, 0x18, 0x00, 0x00, 0x00, 0x00, 0x00 };
