#define square_bracketR_width 12
#define square_bracketR_height 16
static unsigned char square_bracketR_bits[] = {
   0x00, 0x00, 0xf8, 0x01, 0xf8, 0x01, 0x80, 0x01, 0x80, 0x01, 0x80, 0x01,
   0x80, 0x01, 0x80, 0x01, 0x80, 0x01, 0x80, 0x01, 0x80, 0x01, 0x80, 0x01,
   0x80, 0x01, 0xf8, 0x01, 0xf8, 0x01, 0x00, 0x00 };
