#define square_bracket_width 12
#define square_bracket_height 16
static unsigned char square_bracket_bits[] = {
   0x00, 0x00, 0xf8, 0x01, 0xf8, 0x01, 0x18, 0x00, 0x18, 0x00, 0x18, 0x00,
   0x18, 0x00, 0x18, 0x00, 0x18, 0x00, 0x18, 0x00, 0x18, 0x00, 0x18, 0x00,
   0x18, 0x00, 0xf8, 0x01, 0xf8, 0x01, 0x00, 0x00 };
