#define T_width 12
#define T_height 16
static unsigned char T_bits[] = {
   0x00, 0x00, 0xfe, 0x07, 0xfe, 0x07, 0x60, 0x00, 0x60, 0x00, 0x60, 0x00,
   0x60, 0x00, 0x60, 0x00, 0x60, 0x00, 0x60, 0x00, 0x60, 0x00, 0x60, 0x00,
   0x60, 0x00, 0x60, 0x00, 0x60, 0x00, 0x00, 0x00 };
