#define vertical_bar_width 12
#define vertical_bar_height 16
static unsigned char vertical_bar_bits[] = {
   0x00, 0x00, 0x60, 0x00, 0x60, 0x00, 0x60, 0x00, 0x60, 0x00, 0x60, 0x00,
   0x60, 0x00, 0x60, 0x00, 0x60, 0x00, 0x60, 0x00, 0x60, 0x00, 0x60, 0x00,
   0x60, 0x00, 0x60, 0x00, 0x60, 0x00, 0x00, 0x00 };
